<?xml version="1.0" standalone="no"?>
<!DOCTYPE svg PUBLIC "-//W3C//DTD SVG 20010904//EN"
 "http://www.w3.org/TR/2001/REC-SVG-20010904/DTD/svg10.dtd">
<svg version="1.0" xmlns="http://www.w3.org/2000/svg"
 width="1280.000000pt" height="1009.000000pt" viewBox="0 0 1280.000000 1009.000000"
 preserveAspectRatio="xMidYMid meet">
<metadata>
Created by potrace 1.15, written by Peter Selinger 2001-2017
</metadata>
<g transform="translate(0.000000,1009.000000) scale(0.100000,-0.100000)"
fill="#000000" stroke="none">
<path d="M2635 10078 c-11 -6 -45 -34 -75 -63 -44 -42 -62 -53 -89 -53 -55 -1
-65 -19 -67 -124 -1 -51 -5 -105 -9 -120 -5 -20 -2 -36 9 -53 23 -35 69 -33
157 10 81 39 106 42 148 21 46 -24 139 -132 147 -170 17 -93 -28 -106 -116
-34 -52 42 -99 34 -118 -20 -21 -60 33 -88 147 -76 60 6 74 4 103 -14 41 -26
68 -70 70 -117 2 -46 -24 -76 -50 -57 -28 20 -77 41 -108 45 -69 10 -120 -42
-89 -89 17 -26 22 -27 152 -24 114 2 119 -8 114 -225 -6 -233 -110 -580 -251
-835 -119 -214 -125 -303 -27 -368 31 -21 52 -26 99 -27 60 0 61 0 107 51 94
103 181 290 221 479 31 146 39 434 15 565 -27 144 -28 171 -8 210 24 46 76 80
124 80 46 0 87 17 92 39 5 25 -13 70 -33 81 -38 20 -68 11 -96 -27 -39 -53
-65 -73 -96 -73 -35 0 -68 42 -68 88 0 43 47 92 130 136 69 36 90 54 90 77 0
39 -83 64 -130 39 -11 -6 -25 -29 -31 -51 -15 -47 -50 -79 -80 -72 -11 3 -32
21 -46 39 -52 69 -10 168 90 212 65 28 80 94 28 121 -51 28 -111 -3 -111 -57
0 -73 -70 -97 -114 -39 -40 52 -66 118 -66 169 0 91 39 132 123 129 57 -2 97
19 97 49 0 11 -15 37 -34 57 l-33 36 -87 -2 c-86 -2 -87 -1 -128 34 -43 36
-69 42 -103 23z"/>
<path d="M1670 9622 c-20 -11 -45 -37 -59 -62 l-24 -42 23 -64 c29 -83 30
-159 2 -187 -17 -17 -34 -21 -91 -21 -81 -1 -112 -19 -148 -82 -51 -89 -39
-170 37 -256 96 -107 194 -169 490 -308 208 -98 268 -138 301 -203 23 -43 22
-104 -1 -132 -23 -27 -144 47 -357 218 -142 113 -221 159 -321 188 -140 40
-288 13 -360 -65 -64 -69 -92 -206 -61 -295 11 -30 9 -35 -20 -65 -18 -18 -53
-42 -79 -54 -168 -74 -186 -84 -238 -137 -71 -71 -93 -121 -94 -206 0 -75 21
-148 59 -200 14 -20 67 -72 116 -116 50 -44 111 -110 138 -148 101 -147 167
-194 272 -195 129 0 282 65 535 230 223 144 325 195 435 214 104 18 136 40
118 79 -11 23 -13 23 -84 15 -79 -8 -128 -20 -358 -88 -169 -49 -194 -47 -255
20 -28 31 -36 48 -36 79 0 48 28 86 78 102 93 29 141 105 127 202 -4 28 -7 60
-6 70 1 53 80 107 156 107 48 0 97 -23 190 -89 78 -55 137 -77 184 -66 39 8
71 41 71 72 0 13 -44 108 -97 211 -53 103 -114 221 -135 263 -61 118 -63 200
-6 264 25 29 37 35 69 35 74 0 138 -48 184 -139 64 -128 105 -255 105 -333 0
-71 19 -146 45 -175 l22 -27 16 25 c19 29 53 194 61 299 14 168 -30 401 -107
564 -60 126 -115 206 -206 297 -109 109 -121 114 -266 111 -149 -2 -208 10
-236 49 -42 59 -122 76 -189 41z"/>
<path d="M3853 9200 c-261 -47 -504 -310 -627 -680 -19 -58 -42 -145 -51 -195
-9 -49 -21 -100 -27 -113 -15 -29 -2 -53 35 -66 38 -14 77 6 77 39 0 51 102
167 225 256 34 24 108 68 166 97 85 44 117 55 170 59 41 4 74 1 88 -6 31 -17
61 -70 61 -109 0 -109 -103 -191 -501 -396 -194 -99 -229 -121 -239 -147 -16
-39 -8 -45 38 -30 123 39 248 72 326 86 102 17 274 20 361 4 127 -22 183 -26
255 -17 130 15 261 91 321 187 42 66 40 128 -6 216 -33 62 -35 70 -24 102 6
20 36 62 65 94 61 66 69 88 69 179 -1 116 -78 239 -180 286 -58 28 -99 30
-178 9 -114 -30 -134 -21 -191 77 -14 26 -35 52 -44 57 -28 15 -132 21 -189
11z"/>
<path d="M3510 7845 c-177 -25 -435 -102 -447 -132 -9 -24 4 -26 74 -10 150
35 293 30 429 -17 201 -68 278 -149 187 -194 -21 -11 -55 -25 -75 -31 -31 -10
-38 -18 -38 -37 0 -38 15 -58 71 -100 28 -20 69 -59 90 -87 32 -40 39 -57 39
-94 0 -77 -30 -112 -98 -113 -69 0 -102 21 -238 155 -194 191 -306 268 -458
314 -37 12 -70 21 -72 21 -2 0 -4 -12 -4 -27 0 -18 12 -37 41 -62 106 -92 227
-229 306 -346 70 -104 123 -205 204 -384 85 -190 111 -232 180 -302 l46 -47
-68 -1 c-39 -1 -105 -12 -154 -26 -102 -30 -98 -30 -86 -7 31 57 30 233 0 358
-30 125 -147 320 -281 471 -87 97 -279 274 -293 270 -15 -5 -18 -67 -6 -108 6
-20 34 -71 61 -114 28 -42 62 -99 77 -126 23 -45 25 -54 15 -88 -26 -86 -111
-122 -159 -67 -21 24 -26 26 -41 14 -38 -29 -41 -42 -42 -156 0 -128 -9 -155
-67 -199 -30 -23 -46 -28 -94 -28 -49 0 -63 4 -96 31 -83 66 -103 162 -57 269
60 138 60 141 40 164 -17 19 -21 19 -35 7 -30 -27 -106 -56 -149 -56 -90 0
-139 59 -129 155 12 114 106 226 247 294 49 23 80 45 90 63 14 26 14 29 -12
55 -22 21 -39 27 -86 31 -49 3 -78 -2 -182 -37 -193 -66 -303 -130 -435 -253
-93 -87 -161 -176 -223 -293 -47 -89 -47 -91 -47 -185 0 -86 3 -102 32 -162
62 -132 179 -226 321 -260 48 -11 103 -24 122 -29 58 -14 100 -46 120 -92 11
-23 20 -47 20 -53 0 -15 -116 -44 -172 -44 -45 0 -74 14 -150 72 -120 92 -303
71 -422 -48 -58 -57 -91 -140 -81 -204 4 -25 9 -62 12 -82 7 -54 -10 -94 -77
-178 -33 -41 -68 -91 -77 -110 -72 -144 112 -450 372 -619 143 -94 330 -169
519 -210 153 -34 216 -30 216 13 0 26 -37 62 -170 167 -88 70 -100 84 -167
195 -99 164 -125 223 -125 288 -1 64 30 123 68 132 14 4 49 4 79 2 126 -11
207 -114 403 -514 50 -101 89 -168 107 -182 30 -24 90 -31 81 -9 -25 62 -71
220 -86 297 -31 164 -33 240 -11 413 12 87 21 176 21 198 0 37 2 40 23 33 50
-16 94 -24 141 -24 42 0 47 -2 41 -17 -23 -58 -47 -135 -61 -201 -23 -105 -23
-344 0 -472 31 -174 100 -396 128 -411 30 -16 31 11 8 118 -18 85 -20 107 -10
163 6 36 15 92 21 125 25 150 79 258 143 289 48 23 62 20 76 -14 18 -44 84
-100 119 -100 34 0 47 14 81 84 56 113 187 141 272 56 66 -65 48 -134 -51
-194 -32 -20 -89 -65 -127 -100 -71 -65 -161 -180 -156 -198 1 -5 -20 -43 -47
-84 -49 -72 -91 -180 -91 -231 0 -21 3 -23 23 -18 40 12 91 51 167 129 l76 76
33 -34 34 -35 -126 -132 c-69 -73 -124 -136 -121 -141 3 -4 29 -8 58 -8 59 0
103 20 238 104 l78 49 52 -44 c29 -25 70 -57 91 -72 28 -21 37 -35 37 -58 0
-16 9 -38 21 -50 19 -19 28 -20 123 -14 84 6 108 4 133 -8 40 -21 91 -81 99
-115 3 -15 8 -33 10 -41 8 -24 -17 -96 -44 -124 -29 -30 -105 -57 -161 -57
-20 0 -83 11 -140 25 -140 32 -164 18 -125 -73 19 -44 21 -132 3 -160 -53 -84
-239 -73 -337 21 -19 18 -49 62 -68 100 -37 73 -102 144 -141 153 -61 16 -86
-67 -58 -191 71 -322 363 -672 650 -781 95 -36 212 -43 286 -19 178 59 307
217 350 429 17 86 21 93 62 131 48 43 74 58 238 133 120 56 164 93 222 191 96
162 111 331 42 488 -26 57 -94 137 -137 159 -15 8 -46 39 -70 70 l-42 56 32
24 c74 59 69 224 -13 363 -44 75 -151 183 -240 242 -51 35 -64 48 -61 64 3 11
11 44 17 74 11 49 13 52 26 35 34 -48 140 -145 186 -170 70 -38 130 -39 162
-2 50 58 42 323 -14 486 -40 115 -106 219 -221 350 -54 61 -106 126 -117 144
-22 37 -49 126 -40 134 3 3 32 0 66 -7 33 -6 75 -9 93 -5 18 3 37 6 42 6 5 1
26 -68 47 -152 75 -299 157 -396 280 -332 76 39 144 155 176 299 14 67 16 118
13 310 -9 573 -7 605 47 613 57 8 75 -113 54 -367 -10 -120 -10 -153 1 -186
22 -68 47 -57 147 61 243 288 465 476 644 544 135 51 188 48 70 -5 -223 -99
-484 -350 -704 -677 -295 -438 -436 -810 -480 -1273 -15 -151 -6 -504 16 -638
46 -288 70 -347 146 -347 45 0 63 19 54 59 -10 45 9 71 51 71 43 0 74 -30 99
-97 10 -27 29 -70 42 -96 22 -45 23 -48 4 -38 -51 28 -128 6 -174 -48 -37 -45
-41 -79 -17 -137 13 -29 22 -73 23 -107 2 -54 -1 -61 -27 -84 -26 -22 -36 -24
-77 -19 -78 10 -135 -23 -170 -99 -23 -49 -24 -135 -4 -179 21 -45 137 -155
220 -211 69 -46 117 -71 389 -199 155 -74 194 -100 237 -159 32 -45 40 -118
15 -152 -12 -17 -16 -17 -46 -5 -53 22 -177 106 -279 189 -183 149 -244 187
-351 220 -126 38 -226 35 -319 -11 l-46 -23 -84 34 c-46 18 -109 35 -140 38
-86 8 -118 -10 -184 -104 -119 -169 -209 -221 -408 -239 -44 -3 -79 -10 -79
-14 0 -9 127 -130 190 -182 58 -47 147 -94 217 -114 l55 -16 -25 -26 c-36 -37
-67 -110 -67 -156 0 -47 -5 -46 -114 32 -105 74 -273 242 -360 360 -38 50 -73
92 -77 92 -19 0 -31 -78 -27 -179 4 -88 11 -125 42 -215 74 -220 144 -337 257
-433 136 -114 274 -162 482 -167 l128 -3 20 -32 c28 -46 101 -115 146 -137 81
-40 234 -14 398 68 44 22 148 85 231 139 83 54 197 123 255 154 100 54 122 61
251 86 65 12 92 37 79 72 -15 39 -125 23 -386 -56 -183 -55 -245 -62 -288 -34
l-26 17 25 38 c23 33 25 44 21 103 l-4 65 35 20 c68 37 96 111 79 209 -7 41
-6 56 9 82 33 62 148 92 227 60 18 -8 62 -37 98 -64 82 -62 145 -88 196 -80
41 7 83 46 83 77 0 11 -43 104 -97 207 -53 104 -117 228 -142 277 -40 78 -46
97 -46 150 2 167 134 213 248 87 44 -48 53 -67 107 -201 33 -84 43 -125 50
-205 10 -108 22 -160 43 -190 34 -46 61 12 93 195 20 119 14 325 -15 450 -45
196 -136 376 -260 512 -28 31 -51 58 -51 60 0 3 19 11 43 18 63 19 128 54 202
110 62 47 68 49 88 35 15 -11 47 -15 108 -15 80 0 90 -2 120 -27 63 -54 87
-148 48 -197 l-21 -26 -40 35 c-43 36 -106 56 -148 45 -53 -14 -65 -96 -18
-121 12 -7 55 -11 96 -11 90 2 138 -16 148 -54 12 -46 -4 -238 -30 -367 -49
-242 -178 -567 -313 -790 -91 -149 -117 -214 -118 -293 0 -51 4 -66 27 -96 49
-64 142 -94 203 -66 41 18 146 157 203 266 137 264 214 663 184 964 -16 167
-16 188 11 238 29 56 74 80 149 80 67 0 88 16 88 66 0 50 -40 89 -83 80 -17
-4 -36 -14 -41 -24 -21 -39 -84 -92 -109 -92 -55 0 -90 79 -64 143 18 43 52
69 146 114 84 39 91 46 91 85 0 58 -98 80 -145 33 -14 -13 -25 -33 -25 -43 0
-29 -38 -72 -64 -72 -72 0 -112 121 -66 197 20 34 94 93 115 93 7 0 24 9 39
21 71 56 -24 170 -98 116 -9 -7 -22 -33 -27 -57 -11 -50 -24 -69 -54 -80 -31
-12 -52 6 -84 68 -39 77 -54 162 -40 216 20 76 75 114 137 96 46 -14 88 -1
103 34 9 20 7 31 -16 69 -31 53 -74 73 -137 63 -57 -9 -100 8 -137 54 -18 22
-41 40 -51 40 -15 0 -7 13 38 58 67 67 114 135 171 249 48 97 50 107 16 91
-38 -17 -94 10 -261 127 -242 169 -399 235 -558 235 -98 0 -183 -22 -308 -80
-164 -77 -252 -88 -304 -39 -13 13 -24 34 -24 47 0 63 101 174 209 228 49 25
67 29 141 28 78 0 104 -6 315 -76 127 -42 258 -82 292 -88 193 -38 349 37 514
246 46 58 85 112 87 119 2 8 -6 19 -18 25 -12 6 -81 61 -153 122 -230 193
-288 222 -452 221 -114 0 -215 -22 -354 -79 -102 -42 -148 -45 -173 -14 -39
49 -8 109 90 173 106 69 178 93 431 142 234 46 351 94 445 183 51 49 118 153
145 227 19 50 71 260 71 285 0 13 -142 106 -225 148 -219 109 -405 128 -547
57 -131 -66 -198 -152 -334 -431 -109 -224 -141 -268 -193 -262 -25 3 -26 6
-26 63 1 50 9 79 52 175 67 152 83 208 83 301 0 102 -26 172 -90 242 -47 51
-49 52 -81 40 -62 -24 -143 -79 -214 -145 -166 -156 -195 -314 -124 -683 43
-226 47 -399 12 -477 -26 -56 -51 -73 -88 -56 -62 28 -118 206 -85 269 20 37
24 142 6 201 -22 78 -151 253 -227 307 l-36 27 33 38 c71 82 91 174 55 248
-31 64 -104 152 -169 203 -75 60 -217 130 -317 156 -103 27 -356 35 -495 14z
m585 -1588 c35 -73 133 -194 228 -280 191 -171 217 -206 217 -290 0 -37 -5
-49 -26 -66 -49 -38 -101 -19 -162 58 -48 61 -262 395 -262 410 0 24 -49 119
-79 154 l-32 36 28 7 c15 3 33 7 38 9 24 8 31 2 50 -38z m1737 -53 c52 -27 61
-68 22 -107 -46 -46 -116 -53 -279 -27 -164 26 -283 28 -361 5 -31 -9 -58 -14
-61 -12 -8 8 61 56 118 80 86 39 224 69 349 77 127 8 171 4 212 -16z m-367
-695 c144 -26 198 -94 132 -166 -57 -63 -179 -68 -354 -15 -153 46 -224 50
-329 17 -32 -11 35 42 101 79 141 80 309 111 450 85z m-1273 -268 c83 -28 117
-49 182 -108 98 -88 119 -140 75 -184 l-20 -20 -48 44 c-57 54 -113 84 -173
93 -29 5 -67 24 -120 63 -43 31 -78 58 -78 61 0 5 108 66 121 69 3 0 31 -8 61
-18z m1158 -138 c118 -58 251 -119 294 -135 144 -53 269 -70 361 -48 22 5 40
8 41 7 2 -1 -16 -18 -38 -36 -33 -28 -49 -34 -79 -33 -54 4 -79 -31 -79 -112
0 -69 -9 -136 -19 -136 -3 0 -18 22 -34 49 -98 175 -241 289 -429 341 -89 25
-205 26 -293 4 -81 -21 -126 -13 -159 27 -26 30 -34 85 -20 124 8 19 57 46
104 56 80 17 126 3 350 -108z m-48 -360 c63 -31 133 -91 157 -137 17 -31 8
-85 -20 -114 -36 -39 -71 -29 -150 44 -85 78 -141 108 -250 134 -113 27 -134
47 -79 75 50 26 102 34 192 31 71 -3 98 -9 150 -33z m890 -254 c90 -96 126
-186 98 -240 -18 -32 -55 -23 -105 26 -37 37 -44 49 -36 63 9 16 3 20 -49 30
-41 9 -76 25 -119 57 -34 25 -61 48 -61 52 0 13 152 72 185 72 24 1 41 -11 87
-60z"/>
<path d="M1106 4949 c-44 -35 -36 -73 29 -134 44 -40 55 -57 55 -81 0 -41 -29
-65 -82 -71 -67 -7 -103 23 -162 137 -26 52 -53 98 -60 102 -40 26 -96 -19
-96 -76 0 -44 24 -74 70 -86 36 -10 80 -50 80 -73 0 -5 -16 -25 -35 -43 -47
-44 -90 -52 -146 -26 -53 23 -72 43 -108 114 -15 29 -40 60 -54 68 -24 13 -30
13 -54 0 -37 -21 -58 -60 -49 -93 7 -29 51 -57 89 -57 35 0 71 -43 63 -75 -5
-21 -23 -34 -83 -63 -63 -30 -88 -36 -142 -36 -120 -1 -178 54 -155 146 9 39
-3 75 -31 94 -23 15 -27 15 -70 -10 -24 -15 -49 -35 -55 -46 -5 -10 -10 -53
-10 -95 l0 -76 -50 -53 c-27 -29 -50 -61 -50 -72 0 -24 22 -58 83 -127 39 -45
47 -61 47 -94 0 -60 19 -71 141 -82 57 -6 121 -13 142 -17 87 -15 111 50 59
161 -41 86 -45 110 -27 148 31 63 183 167 245 167 31 0 70 -26 70 -46 0 -8
-25 -41 -55 -74 -30 -33 -55 -62 -55 -64 0 -26 26 -60 56 -72 32 -13 38 -13
59 0 32 21 49 78 42 145 -7 70 10 110 64 145 21 15 59 29 82 32 36 5 48 2 72
-18 l28 -24 -27 -27 c-48 -49 -70 -132 -46 -177 5 -10 23 -23 40 -28 26 -10
34 -8 57 12 26 22 28 30 33 126 5 93 7 103 30 122 23 19 34 20 135 15 170 -10
333 -43 526 -108 141 -48 390 -162 498 -228 163 -99 238 -131 315 -131 88 0
166 82 166 176 0 64 -17 87 -124 166 -273 203 -698 307 -1132 277 -167 -12
-172 -12 -215 9 -59 29 -81 68 -84 150 -1 50 -6 68 -20 78 -27 20 -68 17 -99
-7z"/>
<path d="M11461 4468 c-8 -13 -38 -62 -67 -109 -28 -47 -68 -107 -88 -134
-121 -157 -173 -351 -196 -725 -12 -196 -28 -373 -36 -394 -3 -7 2 -16 10 -19
43 -17 123 112 207 331 23 61 46 112 50 112 16 0 18 -51 3 -106 -8 -32 -41
-122 -74 -200 -59 -141 -94 -244 -83 -244 3 0 34 23 68 51 194 157 335 419
376 699 18 128 7 342 -25 462 -24 91 -87 242 -117 281 -13 16 -15 16 -28 -5z"/>
<path d="M1650 4239 c-97 -11 -240 -47 -338 -85 -107 -42 -301 -155 -351 -205
-91 -90 -138 -218 -148 -399 -5 -102 -6 -106 -39 -140 -111 -117 -45 -280 115
-280 27 0 71 5 98 11 74 17 103 -2 145 -93 58 -126 74 -152 109 -176 69 -47
176 -12 291 97 93 87 139 161 272 432 147 302 195 359 300 359 25 0 57 -5 71
-10 l26 -10 -38 -71 c-21 -39 -99 -148 -174 -241 -138 -172 -216 -290 -245
-370 -9 -26 -16 -77 -16 -128 -1 -145 57 -252 165 -305 61 -29 91 -32 161 -15
101 25 154 -15 250 -190 66 -118 135 -199 200 -232 64 -33 160 -36 248 -7 68
21 79 29 153 107 44 46 136 128 205 182 118 91 180 154 209 208 17 32 15 154
-4 227 -24 95 -88 215 -222 413 -142 211 -161 247 -210 385 -43 124 -69 177
-87 177 -8 0 -22 -19 -31 -43 -20 -54 -13 -92 56 -270 68 -175 77 -225 55
-301 -22 -73 -64 -116 -116 -116 -43 1 -51 6 -130 99 -34 40 -77 79 -95 87
-18 7 -63 12 -102 12 -56 -1 -80 3 -119 23 -42 20 -51 31 -63 68 -20 64 -2
131 80 289 73 143 74 146 26 190 -57 54 -134 38 -303 -64 -60 -37 -134 -78
-164 -93 -31 -15 -69 -36 -85 -47 -71 -50 -164 -55 -232 -13 -118 73 -85 222
66 298 47 24 128 46 221 61 165 26 301 72 325 109 3 5 -16 16 -43 25 -126 42
-341 62 -492 45z"/>
<path d="M12394 4184 c-91 -55 -154 -107 -246 -202 -99 -103 -166 -191 -288
-378 -115 -177 -126 -224 -53 -224 70 0 249 117 288 189 23 40 83 106 91 99
18 -19 -76 -176 -148 -245 -27 -27 -63 -48 -98 -60 -46 -15 -55 -22 -55 -42 0
-36 45 -64 104 -65 43 -1 55 4 83 30 18 17 58 44 88 60 79 42 197 163 242 249
58 111 89 231 95 365 6 126 -10 260 -31 260 -7 0 -39 -16 -72 -36z"/>
<path d="M10855 4110 c-77 -12 -156 -75 -196 -157 -22 -45 -25 -67 -79 -559
-45 -409 -82 -608 -149 -809 -28 -82 -27 -84 19 -26 115 145 229 352 296 539
36 100 87 292 99 372 14 103 19 109 26 35 16 -158 -21 -382 -116 -695 -30 -96
-52 -176 -51 -178 2 -1 35 46 73 105 248 381 338 753 272 1129 -23 137 -45
193 -85 221 -37 26 -59 30 -109 23z"/>
<path d="M10234 4037 c-12 -28 -40 -96 -63 -151 -74 -176 -88 -231 -111 -426
-69 -596 -135 -903 -247 -1149 -39 -87 -28 -81 73 46 180 223 295 426 386 678
l28 80 -4 -75 c-6 -94 -42 -205 -151 -455 -46 -104 -81 -192 -79 -194 8 -9
116 104 180 189 162 214 247 480 247 775 1 184 -27 330 -91 490 -29 72 -129
245 -142 245 -3 0 -15 -24 -26 -53z"/>
<path d="M9647 3908 c-66 -95 -113 -176 -172 -300 -89 -189 -115 -271 -176
-568 -96 -463 -179 -683 -325 -864 l-56 -68 42 23 c188 106 380 338 514 622
57 120 80 176 161 392 l26 70 -6 -100 c-7 -116 -33 -243 -75 -370 -42 -127
-149 -341 -198 -398 -52 -59 -63 -94 -36 -114 25 -20 109 -11 161 16 42 21 93
73 93 95 0 7 14 25 31 42 80 76 173 225 219 352 127 349 95 753 -91 1124 -27
53 -53 99 -58 102 -5 4 -30 -22 -54 -56z"/>
<path d="M7269 3775 c-311 -64 -584 -423 -679 -893 -11 -57 -26 -112 -32 -122
-26 -41 54 -83 100 -54 15 10 21 21 17 33 -7 22 73 130 142 191 110 98 318
213 419 232 51 9 65 8 95 -6 47 -22 69 -62 69 -125 0 -48 -4 -56 -47 -102 -69
-74 -207 -161 -466 -294 -215 -111 -247 -132 -247 -169 0 -23 22 -20 141 18
190 61 255 71 449 70 122 -1 189 -5 220 -15 l44 -15 -37 -23 c-53 -32 -41 -36
24 -7 30 13 87 27 129 31 147 14 250 63 335 157 25 27 50 69 57 91 9 30 33 62
84 112 39 39 92 99 118 134 25 35 46 60 46 57 0 -17 -63 -129 -111 -196 -64
-91 -212 -245 -294 -307 -33 -25 -91 -61 -129 -79 -83 -41 -108 -61 -104 -87
6 -38 51 -60 136 -65 91 -5 139 7 185 47 18 15 58 45 89 65 253 166 417 478
468 890 12 97 18 341 9 350 -7 7 -166 -77 -231 -122 -27 -18 -79 -64 -116
-102 -38 -39 -72 -70 -75 -70 -4 0 -7 7 -7 15 0 49 -86 160 -154 200 -65 37
-96 39 -207 15 -118 -26 -129 -22 -176 62 -17 29 -39 61 -49 70 -27 24 -133
31 -215 13z"/>
<path d="M9072 3530 c-110 -74 -248 -209 -357 -350 -24 -31 -137 -197 -253
-370 -254 -382 -343 -492 -492 -609 -19 -15 -22 -22 -14 -31 34 -34 328 86
469 192 93 69 247 226 315 321 30 41 58 76 61 76 11 2 29 -50 29 -85 0 -56
-30 -101 -162 -240 -127 -134 -178 -210 -178 -267 0 -35 3 -34 109 26 93 53
251 201 318 299 157 228 243 516 243 818 0 150 -9 260 -20 260 -4 0 -35 -18
-68 -40z"/>
<path d="M11970 3126 c-159 -34 -253 -75 -258 -114 -3 -18 4 -26 35 -39 51
-22 185 -22 236 0 36 16 38 16 35 -1 -7 -34 -132 -73 -348 -106 -74 -12 -99
-20 -112 -37 -21 -25 -12 -50 29 -76 26 -17 39 -18 193 -11 25 1 90 -4 145
-11 245 -32 528 37 799 196 l79 46 -49 25 c-89 45 -182 80 -286 107 -87 23
-129 28 -268 31 -114 2 -185 -1 -230 -10z"/>
<path d="M11395 3039 c-163 -167 -383 -343 -586 -469 -136 -85 -489 -260 -649
-323 -257 -100 -535 -179 -783 -221 -210 -36 -311 -46 -532 -53 -305 -9 -549
16 -835 85 l-115 28 -55 58 c-135 143 -311 227 -535 255 -44 6 -107 22 -140
35 -71 30 -166 34 -223 10 l-37 -15 24 -18 24 -19 -54 -7 c-140 -19 -413 -104
-424 -132 -9 -25 1 -27 71 -9 192 48 412 20 583 -75 123 -68 123 -124 -1 -165
-27 -8 -53 -24 -58 -35 -16 -28 10 -70 68 -112 60 -43 120 -114 132 -158 22
-75 -28 -149 -99 -149 -61 1 -112 33 -206 129 -179 185 -333 297 -472 347 -89
31 -113 31 -113 1 0 -23 33 -60 97 -108 51 -38 189 -204 263 -315 75 -113 157
-270 220 -419 107 -256 235 -379 406 -393 89 -7 147 12 202 65 25 23 46 42 47
40 1 -1 24 -42 50 -92 27 -49 103 -182 170 -295 67 -113 141 -238 164 -278 24
-41 44 -72 46 -70 9 11 117 314 130 365 44 175 33 443 -26 623 -6 19 -14 78
-19 130 -5 74 -13 107 -34 149 -31 59 -102 141 -150 170 -17 11 -48 41 -70 66
l-38 47 35 36 c40 43 72 102 82 153 l7 36 77 -23 c103 -30 302 -69 425 -85
123 -15 440 -7 611 16 822 109 1550 442 2106 962 112 105 229 225 268 276 26
34 5 16 -54 -44z m-3446 -2076 c-1 -34 -2 -35 -9 -13 -11 36 -11 50 0 50 6 0
10 -17 9 -37z"/>
<path d="M11465 2659 c-99 -13 -213 -43 -290 -77 -65 -28 -66 -29 -43 -44 50
-33 159 -68 273 -88 261 -47 332 -63 397 -92 38 -17 67 -33 64 -35 -2 -3 -98
8 -213 23 -158 20 -253 27 -398 28 -216 1 -353 -16 -321 -40 10 -7 71 -25 135
-40 289 -66 360 -85 421 -117 36 -18 106 -54 155 -79 304 -156 647 -176 948
-57 42 17 77 34 77 38 0 4 -14 27 -32 52 -212 294 -556 490 -929 529 -114 11
-144 11 -244 -1z"/>
<path d="M3150 2279 c-137 -62 -232 -239 -279 -519 -22 -134 -41 -390 -41
-560 0 -124 -15 -260 -35 -306 -37 -88 -139 -22 -201 131 -77 189 -58 465 54
780 22 61 42 125 45 143 6 31 6 32 -21 26 -55 -13 -159 -75 -210 -126 -179
-176 -253 -507 -181 -809 59 -249 253 -495 480 -609 117 -59 169 -51 203 33
50 120 101 212 233 415 147 227 231 386 276 522 56 169 72 352 42 506 -31 161
-138 329 -240 375 -51 24 -70 23 -125 -2z"/>
<path d="M10893 2214 c-18 -4 -23 -12 -23 -37 0 -74 45 -102 276 -168 98 -28
199 -62 224 -75 52 -27 107 -70 100 -78 -3 -3 -37 7 -75 21 -385 142 -580 190
-800 198 l-130 5 165 -81 c537 -265 920 -398 1274 -445 60 -8 111 -12 114 -10
2 3 -18 36 -44 75 -255 364 -603 585 -944 596 -63 2 -125 1 -137 -1z"/>
<path d="M5735 2093 c-11 -3 -24 -9 -30 -13 -5 -4 -44 -17 -85 -30 -160 -47
-302 -133 -437 -263 -98 -95 -168 -188 -229 -307 -37 -72 -39 -79 -39 -170 1
-74 6 -107 23 -150 29 -72 84 -144 152 -197 76 -58 121 -78 225 -99 50 -9 104
-23 120 -30 45 -18 82 -60 101 -112 9 -26 34 -85 56 -131 72 -151 216 -269
369 -306 169 -40 347 6 437 113 91 108 139 148 256 212 135 74 175 113 206
204 57 167 26 390 -80 576 -95 165 -227 324 -399 476 -112 99 -121 102 -121
29 0 -47 24 -102 77 -182 111 -165 117 -199 45 -275 -35 -38 -92 -39 -121 -2
-20 25 -22 26 -45 10 -35 -22 -46 -72 -39 -175 7 -105 -8 -145 -69 -188 -88
-61 -200 -26 -252 78 -37 76 -35 122 14 230 43 97 47 116 27 143 -13 18 -15
17 -54 -8 -21 -14 -64 -32 -95 -38 -107 -22 -171 29 -170 137 1 123 96 243
248 315 111 53 132 94 70 135 -26 17 -125 28 -161 18z"/>
<path d="M10306 1919 c22 -17 125 -92 229 -167 190 -135 335 -250 335 -264 0
-25 -80 12 -276 128 -146 86 -313 170 -387 194 -72 23 -86 -6 -39 -81 33 -50
100 -114 140 -132 15 -6 68 -50 117 -97 191 -180 334 -270 773 -486 172 -85
315 -154 317 -154 18 0 -47 244 -89 334 -136 296 -453 559 -821 681 -89 30
-277 75 -314 75 -22 0 -21 -3 15 -31z"/>
<path d="M9640 1796 c0 -2 42 -32 93 -67 109 -74 206 -150 302 -237 76 -70
265 -272 265 -285 0 -4 -39 27 -87 69 -184 161 -373 289 -551 376 -87 42 -106
48 -119 37 -22 -19 -11 -81 20 -119 14 -16 76 -74 139 -129 118 -104 143 -132
172 -193 29 -60 131 -164 222 -224 109 -73 249 -129 504 -203 113 -32 231 -68
263 -79 35 -13 57 -16 57 -10 0 18 -98 197 -153 278 -75 113 -153 204 -273
320 -197 190 -406 321 -660 411 -61 22 -194 59 -194 55z"/>
<path d="M8370 1693 c0 -18 81 -149 179 -288 108 -153 181 -274 196 -325 l8
-25 -23 20 c-12 11 -72 90 -133 175 -190 264 -299 381 -386 411 -64 23 -83
-34 -51 -156 19 -74 66 -180 95 -215 6 -8 27 -61 45 -117 93 -289 269 -507
752 -934 136 -120 250 -224 255 -231 13 -20 19 115 11 245 -15 254 -92 512
-220 742 -153 274 -371 501 -625 651 -92 54 -103 60 -103 47z"/>
<path d="M9121 1638 c7 -13 91 -102 189 -198 180 -178 225 -233 260 -315 40
-93 40 -93 -228 148 -214 191 -333 283 -444 342 l-66 35 -6 -28 c-14 -59 26
-131 179 -317 102 -125 138 -177 169 -248 98 -221 311 -392 646 -517 142 -53
385 -128 388 -119 7 16 -55 170 -124 309 -121 244 -240 406 -435 595 -161 156
-325 267 -464 315 -73 25 -78 25 -64 -2z"/>
</g>
</svg>
