<?xml version="1.0" encoding="utf-8"?>
<!-- Generator: Adobe Illustrator 16.0.0, SVG Export Plug-In . SVG Version: 6.00 Build 0)  -->
<!DOCTYPE svg PUBLIC "-//W3C//DTD SVG 1.1//EN" "http://www.w3.org/Graphics/SVG/1.1/DTD/svg11.dtd">
<svg version="1.1" id="Calque_1" xmlns="http://www.w3.org/2000/svg" xmlns:xlink="http://www.w3.org/1999/xlink" x="0px" y="0px"
	 width="700px" height="253px" viewBox="0 0 700 253" enable-background="new 0 0 700 253" xml:space="preserve">
<g>
	<g>
		<g>
			
				<image overflow="visible" opacity="0.2" width="519" height="736" xlink:href="47AF2946.png"  transform="matrix(0.24 0 0 0.24 601.7705 -38.9409)">
			</image>
			<g>
				<path fill="#3B9B61" d="M621.681,115.486C574.942-37.761,680.848-30.895,680.848-30.895S761.783,37.764,621.681,115.486z"/>
			</g>
		</g>
		<path fill="#388254" d="M621.681,115.486l59.167-146.381C680.848-30.895,574.942-37.761,621.681,115.486z"/>
	</g>
	<g>
		<g>
			
				<image overflow="visible" opacity="0.2" width="725" height="621" xlink:href="47AF294A.png"  transform="matrix(0.24 0 0 0.24 420.085 41.3203)">
			</image>
			<g>
				<path fill="#3B9B61" d="M571.85,168.041C393.531,174.112,431.463,62.179,431.463,62.179S528.657-5.077,571.85,168.041z"/>
			</g>
		</g>
		<path fill="#388254" d="M571.85,168.041L431.463,62.179C431.463,62.179,393.531,174.112,571.85,168.041z"/>
	</g>
	<g>
		<g>
			
				<image overflow="visible" opacity="0.2" width="643" height="1024" xlink:href="47AF294D.png"  transform="matrix(0.24 0 0 0.24 182.541 -16.7026)">
			</image>
			<g>
				<path fill="#43AC5F" d="M235.054,206.961C120.186,18.398,263.911-8.703,263.911-8.703S395.454,55.23,235.054,206.961z"/>
			</g>
		</g>
		<path fill="#3B9B61" d="M235.054,206.961L263.911-8.703C263.911-8.703,120.186,18.398,235.054,206.961z"/>
	</g>
	<g>
		<g>
			
				<image overflow="visible" opacity="0.2" width="997" height="736" xlink:href="47AF294E.png"  transform="matrix(0.24 0 0 0.24 -34.4609 -34.3813)">
			</image>
			<g>
				<path fill="#C2DD91" d="M-26.461,111.955C66.883-108.68,181.799,0.762,181.799,0.762S208.806,157.14-26.461,111.955z"/>
			</g>
		</g>
		<path fill="#B4D781" d="M-26.461,111.955L181.799,0.762C181.799,0.762,66.883-108.68-26.461,111.955z"/>
	</g>
	<g>
		<g>
			
				<image overflow="visible" opacity="0.2" width="711" height="675" xlink:href="47AF294C.png"  transform="matrix(0.24 0 0 0.24 249.292 41.1631)">
			</image>
			<g>
				<path fill="#B2D569" d="M257.292,181.053C285.117-1.313,391.634,58.574,391.634,58.574S441.446,170.159,257.292,181.053z"/>
			</g>
		</g>
		<path fill="#97CB5E" d="M257.292,181.053L391.634,58.574C391.634,58.574,285.117-1.313,257.292,181.053z"/>
	</g>
	<g>
		<g>
			
				<image overflow="visible" opacity="0.2" width="634" height="601" xlink:href="47AF294B.png"  transform="matrix(0.24 0 0 0.24 -11.0532 42.1738)">
			</image>
			<g>
				<path fill="#B4D781" d="M-3.053,164.194C21.6,6.229,113.738,58.444,113.738,58.444S156.577,155.299-3.053,164.194z"/>
			</g>
		</g>
		<path fill="#97CB5E" d="M-3.053,164.194l116.791-105.75C113.738,58.444,21.6,6.229-3.053,164.194z"/>
	</g>
	<g>
		<g>
			
				<image overflow="visible" opacity="0.2" width="319" height="424" xlink:href="47AF2945.png"  transform="matrix(0.24 0 0 0.24 488.5752 165.5273)">
			</image>
			<g>
				<path fill="#43AC5F" d="M537.502,245.2c-69.175-37.546-29.729-71.64-29.729-71.64S559.768,169.708,537.502,245.2z"/>
			</g>
		</g>
		<path fill="#3B9B61" d="M537.502,245.2l-29.729-71.64C507.773,173.561,468.327,207.654,537.502,245.2z"/>
	</g>
	<g>
		<g>
			
				<image overflow="visible" opacity="0.2" width="424" height="603" xlink:href="47AF2947.png"  transform="matrix(0.24 0 0 0.24 268.9487 -22.9717)">
			</image>
			<g>
				<path fill="#43AC5F" d="M288.56,99.517C247.379-16.6,328.973-14.97,328.973-14.97S393.509,34.984,288.56,99.517z"/>
			</g>
		</g>
		<path fill="#3B9B61" d="M288.56,99.517L328.973-14.97C328.973-14.97,247.379-16.6,288.56,99.517z"/>
	</g>
	<g>
		<g>
			
				<image overflow="visible" opacity="0.2" width="362" height="540" xlink:href="47AF2944.png"  transform="matrix(0.24 0 0 0.24 315.7612 117.8926)">
			</image>
			<g>
				<path fill="#97CB5E" d="M346.257,225.321c-55.777-84.656,9.733-99.429,9.733-99.429S417.392,153.089,346.257,225.321z"/>
			</g>
		</g>
		<path fill="#71BF64" d="M346.257,225.321l9.733-99.429C355.99,125.893,290.48,140.665,346.257,225.321z"/>
	</g>
	<g>
		<g>
			
				<image overflow="visible" opacity="0.2" width="514" height="377" xlink:href="5C50F779.png"  transform="matrix(0.24 0 0 0.24 -44.7881 42.4648)">
			</image>
			<g>
				<path fill="#97CB5E" d="M-36.788,57.798C61.211,28.572,56.41,96.141,56.41,96.141S12.269,147.526-36.788,57.798z"/>
			</g>
		</g>
		<path fill="#71BF64" d="M-36.788,57.798L56.41,96.141C56.41,96.141,61.211,28.572-36.788,57.798z"/>
	</g>
	<g>
		<g>
			
				<image overflow="visible" opacity="0.2" width="570" height="616" xlink:href="5C50F77F.png"  transform="matrix(0.24 0 0 0.24 129.3193 17.6709)">
			</image>
			<g>
				<path fill="#97CB5E" d="M137.319,143.301c5.073-151.89,98.022-113.23,98.022-113.23S286.916,116.526,137.319,143.301z"/>
			</g>
		</g>
		<path fill="#71BF64" d="M137.319,143.301l98.022-113.23C235.342,30.07,142.392-8.589,137.319,143.301z"/>
	</g>
	<g>
		<g>
			
				<image overflow="visible" opacity="0.2" width="828" height="781" xlink:href="5C50F778.png"  transform="matrix(0.24 0 0 0.24 458.9375 -34.9512)">
			</image>
			<g>
				<path fill="#97CB5E" d="M635.549,130.405c-220.464-12.076-161.431-145.89-161.431-145.89S601.296-87.717,635.549,130.405z"/>
			</g>
		</g>
		<path fill="#71BF64" d="M635.549,130.405L474.118-15.485C474.118-15.485,415.085,118.329,635.549,130.405z"/>
	</g>
	<g>
		<g>
			
				<image overflow="visible" opacity="0.2" width="583" height="826" xlink:href="5C50F77B.png"  transform="matrix(0.24 0 0 0.24 347.0938 -17.8486)">
			</image>
			<g>
				<path fill="#97CB5E" d="M452.851,158.234C288.812,71.699,380.801-9.731,380.801-9.731S503.202-20.261,452.851,158.234z"/>
			</g>
		</g>
		<path fill="#71BF64" d="M452.851,158.234L380.801-9.731C380.801-9.731,288.812,71.699,452.851,158.234z"/>
	</g>
	<g>
		<g>
			
				<image overflow="visible" opacity="0.2" width="436" height="346" xlink:href="5C50F767.png"  transform="matrix(0.24 0 0 0.24 574.5313 131.4717)">
			</image>
			<g>
				<path fill="#C2DD91" d="M656.937,189.929c-84.621,14.748-73.975-41.145-73.975-41.145S624.832,110.257,656.937,189.929z"/>
			</g>
		</g>
		<path fill="#B4D781" d="M656.937,189.929l-73.975-41.145C582.962,148.784,572.315,204.677,656.937,189.929z"/>
	</g>
	<g>
		<g>
			
				<image overflow="visible" opacity="0.2" width="478" height="714" xlink:href="5C50F777.png"  transform="matrix(0.24 0 0 0.24 411.3555 -50.2432)">
			</image>
			<g>
				<path fill="#C2DD91" d="M439.269,99.038C378.424-36.144,476.431-42.243,476.431-42.243S558.754,11.291,439.269,99.038z"/>
			</g>
		</g>
		<path fill="#B4D781" d="M439.269,99.038l37.162-141.281C476.431-42.243,378.424-36.144,439.269,99.038z"/>
	</g>
	<g>
		<g>
			
				<image overflow="visible" opacity="0.2" width="451" height="391" xlink:href="5C50F769.png"  transform="matrix(0.24 0 0 0.24 137.4824 107.6914)">
			</image>
			<g>
				<path fill="#C2DD91" d="M145.482,179.164c24.401-93.169,76.439-56.261,76.439-56.261S241.695,183.561,145.482,179.164z"/>
			</g>
		</g>
		<path fill="#B4D781" d="M145.482,179.164l76.439-56.261C221.921,122.903,169.883,85.995,145.482,179.164z"/>
	</g>
	<g>
		<g>
			
				<image overflow="visible" opacity="0.2" width="803" height="597" xlink:href="5C50F76B.png"  transform="matrix(0.24 0 0 0.24 458.6221 -71.1182)">
			</image>
			<g>
				<path fill="#71BF64" d="M629.206-56.313c-73.582,170.321-161.935,84.894-161.935,84.894S447.271-92.685,629.206-56.313z"/>
			</g>
		</g>
		<path fill="#43AC5F" d="M629.206-56.313L467.271,28.581C467.271,28.581,555.624,114.009,629.206-56.313z"/>
	</g>
</g>
</svg>
