<?xml version="1.0" encoding="utf-8"?>
<!-- Generator: Adobe Illustrator 16.0.0, SVG Export Plug-In . SVG Version: 6.00 Build 0)  -->
<!DOCTYPE svg PUBLIC "-//W3C//DTD SVG 1.1//EN" "http://www.w3.org/Graphics/SVG/1.1/DTD/svg11.dtd">
<svg version="1.1" id="Calque_1" xmlns="http://www.w3.org/2000/svg" xmlns:xlink="http://www.w3.org/1999/xlink" x="0px" y="0px"
	 width="700px" height="253px" viewBox="0 0 700 253" enable-background="new 0 0 700 253" xml:space="preserve">
<g>
	<g>
		
			<image overflow="visible" opacity="0.2" width="699" height="600" xlink:href="D8040911.png"  transform="matrix(0.24 0 0 0.24 438.4004 43.3008)">
		</image>
		<g>
			<path fill="#3B9B61" d="M584.104,165.016c-170.8,5.815-134.467-101.399-134.467-101.399S542.732-0.803,584.104,165.016z"/>
		</g>
	</g>
	<path fill="#388254" d="M584.104,165.016L449.637,63.617C449.637,63.617,413.304,170.832,584.104,165.016z"/>
</g>
<g>
	<g>
		
			<image overflow="visible" opacity="0.2" width="621" height="986" xlink:href="D8040913.png"  transform="matrix(0.24 0 0 0.24 210.8726 -12.2754)">
		</image>
		<g>
			<path fill="#43AC5F" d="M261.509,202.295c-110.025-180.612,27.64-206.57,27.64-206.57S415.146,56.962,261.509,202.295z"/>
		</g>
	</g>
	<path fill="#3B9B61" d="M261.509,202.295l27.64-206.57C289.149-4.275,151.484,21.683,261.509,202.295z"/>
</g>
<g>
	<g>
		
			<image overflow="visible" opacity="0.2" width="960" height="710" xlink:href="D8040916.png"  transform="matrix(0.24 0 0 0.24 3.0205 -29.2085)">
		</image>
		<g>
			<path fill="#C2DD91" d="M11.021,111.295C100.429-100.037,210.499,4.79,210.499,4.79S236.368,154.574,11.021,111.295z"/>
		</g>
	</g>
	<path fill="#B4D781" d="M11.021,111.295L210.499,4.79C210.499,4.79,100.429-100.037,11.021,111.295z"/>
</g>
<g>
	<g>
		
			<image overflow="visible" opacity="0.2" width="686" height="652" xlink:href="D8040917.png"  transform="matrix(0.24 0 0 0.24 274.8096 43.1509)">
		</image>
		<g>
			<path fill="#B2D569" d="M282.81,177.479C309.461,2.803,411.486,60.165,411.486,60.165S459.199,167.045,282.81,177.479z"/>
		</g>
	</g>
	<path fill="#97CB5E" d="M282.81,177.479L411.486,60.165C411.486,60.165,309.461,2.803,282.81,177.479z"/>
</g>
<g>
	<g>
		
			<image overflow="visible" opacity="0.2" width="612" height="581" xlink:href="D8040912.png"  transform="matrix(0.24 0 0 0.24 25.4414 44.1187)">
		</image>
		<g>
			<path fill="#B4D781" d="M33.441,161.332C57.055,10.027,145.308,60.041,145.308,60.041S186.341,152.811,33.441,161.332z"/>
		</g>
	</g>
	<path fill="#97CB5E" d="M33.441,161.332L145.308,60.041C145.308,60.041,57.055,10.027,33.441,161.332z"/>
</g>
<g>
	<g>
		
			<image overflow="visible" opacity="0.2" width="311" height="412" xlink:href="D804091D.png"  transform="matrix(0.24 0 0 0.24 504.0029 162.271)">
		</image>
		<g>
			<path fill="#43AC5F" d="M551.204,238.922c-66.258-35.963-28.475-68.619-28.475-68.619S572.531,166.613,551.204,238.922z"/>
		</g>
	</g>
	<path fill="#3B9B61" d="M551.204,238.922l-28.475-68.619C522.729,170.303,484.946,202.959,551.204,238.922z"/>
</g>
<g>
	<g>
		
			<image overflow="visible" opacity="0.2" width="411" height="582" xlink:href="D804091E.png"  transform="matrix(0.24 0 0 0.24 293.6372 -18.2798)">
		</image>
		<g>
			<path fill="#43AC5F" d="M312.759,99.381c-39.444-111.22,38.71-109.66,38.71-109.66S413.282,37.569,312.759,99.381z"/>
		</g>
	</g>
	<path fill="#3B9B61" d="M312.759,99.381l38.71-109.66C351.469-10.279,273.314-11.839,312.759,99.381z"/>
</g>
<g>
	<g>
		
			<image overflow="visible" opacity="0.2" width="352" height="522" xlink:href="D804091F.png"  transform="matrix(0.24 0 0 0.24 338.4761 116.6445)">
		</image>
		<g>
			<path fill="#97CB5E" d="M368.023,219.881c-53.425-81.087,9.322-95.237,9.322-95.237S436.158,150.694,368.023,219.881z"/>
		</g>
	</g>
	<path fill="#71BF64" d="M368.023,219.881l9.322-95.237C377.346,124.645,314.598,138.794,368.023,219.881z"/>
</g>
<g>
	<g>
		
			<image overflow="visible" opacity="0.2" width="498" height="366" xlink:href="D8040914.png"  transform="matrix(0.24 0 0 0.24 -6.8711 44.3975)">
		</image>
		<g>
			<path fill="#97CB5E" d="M1.129,59.421c93.867-27.994,89.269,36.726,89.269,36.726S48.117,145.366,1.129,59.421z"/>
		</g>
	</g>
	<path fill="#71BF64" d="M1.129,59.421l89.269,36.726C90.397,96.147,94.996,31.427,1.129,59.421z"/>
</g>
<g>
	<g>
		
			<image overflow="visible" opacity="0.2" width="551" height="595" xlink:href="38954F8A.png"  transform="matrix(0.24 0 0 0.24 159.895 20.6489)">
		</image>
		<g>
			<path fill="#97CB5E" d="M167.895,141.319c4.859-145.486,93.89-108.456,93.89-108.456S311.184,115.673,167.895,141.319z"/>
		</g>
	</g>
	<path fill="#71BF64" d="M167.895,141.319l93.89-108.456C261.785,32.863,172.754-4.167,167.895,141.319z"/>
</g>
<g>
	<g>
		
			<image overflow="visible" opacity="0.2" width="798" height="754" xlink:href="38954F8D.png"  transform="matrix(0.24 0 0 0.24 475.6152 -29.7544)">
		</image>
		<g>
			<path fill="#97CB5E" d="M645.117,128.967C433.949,117.4,490.493-10.771,490.493-10.771S612.309-79.958,645.117,128.967z"/>
		</g>
	</g>
	<path fill="#71BF64" d="M645.117,128.967L490.493-10.771C490.493-10.771,433.949,117.4,645.117,128.967z"/>
</g>
<g>
	<g>
		
			<image overflow="visible" opacity="0.2" width="564" height="796" xlink:href="38954F8E.png"  transform="matrix(0.24 0 0 0.24 368.4863 -13.373)">
		</image>
		<g>
			<path fill="#97CB5E" d="M470.122,155.623C313,72.736,401.11-5.261,401.11-5.261S518.351-15.347,470.122,155.623z"/>
		</g>
	</g>
	<path fill="#71BF64" d="M470.122,155.623L401.11-5.261C401.11-5.261,313,72.736,470.122,155.623z"/>
</g>
<g>
	<g>
		
			<image overflow="visible" opacity="0.2" width="422" height="337" xlink:href="38954F8C.png"  transform="matrix(0.24 0 0 0.24 586.3359 129.6509)">
		</image>
		<g>
			<path fill="#C2DD91" d="M665.604,185.981c-81.054,14.126-70.855-39.41-70.855-39.41S634.853,109.668,665.604,185.981z"/>
		</g>
	</g>
	<path fill="#B4D781" d="M665.604,185.981l-70.855-39.41C594.748,146.571,584.55,200.107,665.604,185.981z"/>
</g>
<g>
	<g>
		
			<image overflow="visible" opacity="0.2" width="464" height="689" xlink:href="38954F8B.png"  transform="matrix(0.24 0 0 0.24 430.04 -44.4019)">
		</image>
		<g>
			<path fill="#C2DD91" d="M457.113,98.922C398.834-30.56,492.708-36.402,492.708-36.402S571.561,14.875,457.113,98.922z"/>
		</g>
	</g>
	<path fill="#B4D781" d="M457.113,98.922l35.595-135.324C492.708-36.402,398.834-30.56,457.113,98.922z"/>
</g>
<g>
	<g>
		
			<image overflow="visible" opacity="0.2" width="437" height="380" xlink:href="38954F95.png"  transform="matrix(0.24 0 0 0.24 167.7139 106.8735)">
		</image>
		<g>
			<path fill="#C2DD91" d="M175.714,175.67c23.372-89.24,73.216-53.888,73.216-53.888S267.87,179.881,175.714,175.67z"/>
		</g>
	</g>
	<path fill="#B4D781" d="M175.714,175.67l73.216-53.888C248.93,121.782,199.086,86.43,175.714,175.67z"/>
</g>
<g>
	<g>
		
			<image overflow="visible" opacity="0.2" width="774" height="577" xlink:href="38954F96.png"  transform="matrix(0.24 0 0 0.24 475.3135 -64.397)">
		</image>
		<g>
			<path fill="#71BF64" d="M639.042-49.878c-70.479,163.14-155.106,81.314-155.106,81.314S464.778-84.717,639.042-49.878z"/>
		</g>
	</g>
	<path fill="#43AC5F" d="M639.042-49.878L483.936,31.437C483.936,31.437,568.563,113.262,639.042-49.878z"/>
</g>
</svg>
