<?xml version="1.0" encoding="utf-8"?>
<!-- Generator: Adobe Illustrator 16.0.0, SVG Export Plug-In . SVG Version: 6.00 Build 0)  -->
<!DOCTYPE svg PUBLIC "-//W3C//DTD SVG 1.1//EN" "http://www.w3.org/Graphics/SVG/1.1/DTD/svg11.dtd">
<svg version="1.1" xmlns="http://www.w3.org/2000/svg" xmlns:xlink="http://www.w3.org/1999/xlink" x="0px" y="0px"
	 width="935.616px" height="374.77px" viewBox="0 0 935.616 374.77" enable-background="new 0 0 935.616 374.77"
	 xml:space="preserve">
<g id="Calque_2">
	<g>
		<linearGradient id="SVGID_1_" gradientUnits="userSpaceOnUse" x1="-0.043" y1="226.4629" x2="322.1738" y2="226.4629">
			<stop  offset="0" style="stop-color:#FFF33B"/>
			<stop  offset="0.0595" style="stop-color:#FFE029"/>
			<stop  offset="0.1303" style="stop-color:#FFD218"/>
			<stop  offset="0.2032" style="stop-color:#FEC90F"/>
			<stop  offset="0.2809" style="stop-color:#FDC70C"/>
			<stop  offset="0.6685" style="stop-color:#F3903F"/>
			<stop  offset="0.8876" style="stop-color:#ED683C"/>
			<stop  offset="1" style="stop-color:#E93E3A"/>
		</linearGradient>
		<path fill-rule="evenodd" clip-rule="evenodd" fill="url(#SVGID_1_)" d="M70.333,197.912c4.541,0,8.678,0,13.304,0
			c1.089,5.362,1.795,10.851,3.365,16.08c2.101,7,4.913,13.784,7.334,20.69c1.128,3.217,3.107,4.199,6.604,4.192
			c61.488-0.127,122.976-0.092,184.464-0.092c1.83,0,3.659,0,6.722,0c-3.129,4.949-5.67,9.388-8.716,13.449
			c-0.644,0.859-3.129,0.437-4.766,0.437c-55.823,0.018-111.646,0.015-167.468,0.015c-1.819,0-3.638,0-6.356,0
			c18.141,24.407,41.415,39.176,71.426,45.195c-10.641-12.604-17.207-26.396-21.489-42.077c4.395,0,8.354-0.235,12.253,0.155
			c1.059,0.106,2.295,1.947,2.825,3.247c3.899,9.564,7.865,19.059,14.896,26.893c9.563,10.658,16.456,8.082,23.996-2.263
			c5.396-7.402,9.024-16.167,12.854-24.592c1.192-2.624,2.202-3.625,4.904-3.495c3.315,0.16,6.645,0.038,10.019,0.038
			c-1.965,9.692-8.035,26.99-21.532,42.031c25.851-4.74,47.035-16.721,64.144-35.763c17.031-18.957,26.728-41.217,28.467-67.368
			c-1.601,0-3.363,0-5.125,0c-87.483,0-174.967,0.011-262.45-0.041c-3.364-0.002-5.621,0.597-7.689,3.874
			c-4.085,6.474-13.444,8.677-21.704,6c-4.671-1.513-10.42-9.038-10.613-13.89c-0.443-11.134,2.511-16.785,10.689-20.09
			c8.738-3.531,18.651-0.187,23.007,7.372c0.822,1.427,3.212,2.714,4.906,2.75c11.326,0.241,22.66,0.125,33.991,0.125
			c76.319,0,152.638,0,228.957,0c1.977,0,3.953,0,6.223,0c-1.217-14.714-4.376-28.507-10.979-41.797c5.509,0,10.454,0,15.401-0.006
			c16.847,36.055,13.278,89.583-17.747,127.736c-37.695,46.356-99.767,59.588-152.54,35.26
			C98.19,281.821,71.479,237.554,70.333,197.912z M9.899,187.363c0.04,4.914,3.249,8.458,7.619,8.414
			c4.357-0.043,8.556-4.131,8.479-8.253c-0.082-4.341-4.145-8.642-8.309-8.796C14.309,178.603,9.869,183.525,9.899,187.363z"/>
		<linearGradient id="SVGID_2_" gradientUnits="userSpaceOnUse" x1="15.9839" y1="74.1211" x2="334.5952" y2="74.1211">
			<stop  offset="0" style="stop-color:#FFF33B"/>
			<stop  offset="0.0595" style="stop-color:#FFE029"/>
			<stop  offset="0.1303" style="stop-color:#FFD218"/>
			<stop  offset="0.2032" style="stop-color:#FEC90F"/>
			<stop  offset="0.2809" style="stop-color:#FDC70C"/>
			<stop  offset="0.6685" style="stop-color:#F3903F"/>
			<stop  offset="0.8876" style="stop-color:#ED683C"/>
			<stop  offset="1" style="stop-color:#E93E3A"/>
		</linearGradient>
		<path fill-rule="evenodd" clip-rule="evenodd" fill="url(#SVGID_2_)" d="M61.352,110.455c3.711-5.528,7.158-10.661,10.697-15.932
			c-6.123-8.885-12.196-17.788-18.379-26.615c-1.913-2.731-1.968-4.768,0.726-7.19c4.455-4.005,8.722-8.258,12.72-12.718
			c2.324-2.593,4.337-2.406,6.817-0.692c8.875,6.136,17.758,12.263,26.802,18.507c5.098-3.414,10.232-6.852,15.831-10.601
			c-2.001-9.992-3.956-20.344-6.197-30.633c-0.809-3.713-0.548-6.328,3.507-7.827c5.499-2.033,10.861-4.435,16.306-6.616
			c2.414-0.967,4.116-1.087,5.913,1.862c5.179,8.505,10.965,16.641,16.496,24.932c1.314,1.969,2.252,3.228,5.384,2.115
			c4.55-1.618,9.569-1.918,14.783-2.851c2.396-11.798,4.857-23.911,7.353-36.194c8.814,0,17.438,0,26.616,0
			c2.05,10.775,4.184,21.607,6.127,32.475c0.497,2.774,1.235,4.329,4.559,4.432c3.538,0.109,7.11,0.979,10.548,1.946
			c2.912,0.819,4.467,0.459,6.268-2.409c5.89-9.381,12.286-18.443,18.626-27.832c6.994,3.045,13.721,6.435,20.781,8.85
			c3.429,1.172,3.644,3.025,3.118,5.534c-2.104,10.038-4.448,20.025-6.494,30.074c-0.219,1.076,0.579,2.926,1.498,3.567
			c3.736,2.609,7.838,4.703,11.533,7.364c1.953,1.406,3.185,1.265,5.042-0.017c8.069-5.564,16.291-10.908,24.36-16.472
			c2.727-1.88,4.74-2.107,7.195,0.6c4.136,4.562,8.573,8.864,13.041,13.109c2.081,1.978,2.206,3.294,0.415,5.805
			c-6.064,8.504-11.687,17.323-17.529,25.986c-2.475,3.669-11.079,4.006-14.524,0.466c-9.914-10.187-20.13-19.935-32.359-27.456
			c-15.625-9.61-32.271-16.682-50.407-19.145c-12.391-1.683-25.089-2.598-37.546-1.925c-15.825,0.854-31.087,5.124-45.784,11.554
			c-19.993,8.748-36.886,21.551-51.183,37.748c-12.342,13.983-21.577,29.931-27.249,47.822c-1.751,5.523-8.032,7.924-13.028,4.745
			c-8.956-5.699-17.79-11.596-26.528-17.623c-0.908-0.626-1.501-2.941-1.089-4.042c2.393-6.404,4.856-12.819,7.951-18.897
			c0.737-1.448,4.142-2.564,6.033-2.228C40.514,105.887,50.839,108.239,61.352,110.455z"/>
		<linearGradient id="SVGID_3_" gradientUnits="userSpaceOnUse" x1="14.8091" y1="300.0273" x2="335.0581" y2="300.0273">
			<stop  offset="0" style="stop-color:#FFF33B"/>
			<stop  offset="0.0595" style="stop-color:#FFE029"/>
			<stop  offset="0.1303" style="stop-color:#FFD218"/>
			<stop  offset="0.2032" style="stop-color:#FEC90F"/>
			<stop  offset="0.2809" style="stop-color:#FDC70C"/>
			<stop  offset="0.6685" style="stop-color:#F3903F"/>
			<stop  offset="0.8876" style="stop-color:#ED683C"/>
			<stop  offset="1" style="stop-color:#E93E3A"/>
		</linearGradient>
		<path fill-rule="evenodd" clip-rule="evenodd" fill="url(#SVGID_3_)" d="M314.438,277.958
			c6.487,9.771,12.835,19.542,19.443,29.134c1.614,2.344,1.659,3.664-0.441,5.673c-5.411,5.175-10.571,10.613-16.18,16.299
			c-8.182-5.356-16.214-10.572-24.202-15.854c-7.054-4.665-7.033-4.697-13.659-0.339c-8.497,5.588-8.521,5.592-6.524,16.347
			c1.543,8.311,3.152,16.609,4.932,25.959c-7.352,3.059-14.918,6.409-22.682,9.211c-1.096,0.395-3.679-1.529-4.683-2.99
			c-5.27-7.671-10.363-15.47-15.274-23.375c-1.746-2.81-3.287-3.83-6.777-2.716c-4.468,1.426-9.253,1.861-14.141,2.767
			c-2.109,10.926-4.289,21.945-6.333,32.988c-0.517,2.793-1.857,3.763-4.692,3.676c-6.158-0.188-12.336-0.271-18.486,0.02
			c-3.954,0.187-5.137-1.796-5.768-5.143c-1.987-10.554-4.131-21.078-6.192-31.505c-5.111-0.989-9.977-1.678-14.688-2.94
			c-2.706-0.725-4.012-0.341-5.569,2.149c-5.021,8.026-10.609,15.698-15.603,23.74c-2.151,3.463-4.316,4.305-7.952,2.608
			c-4.876-2.275-9.794-4.524-14.861-6.305c-4.31-1.514-4.69-4.369-3.882-8.083c2.208-10.153,4.398-20.31,6.492-29.983
			c-4.607-3.291-8.562-6.506-12.923-9.016c-1.501-0.864-4.486-0.707-5.989,0.25c-8.125,5.171-16.125,10.565-23.893,16.258
			c-2.999,2.197-4.878,1.516-7.077-0.717c-4.091-4.154-8.085-8.425-12.421-12.31c-2.687-2.408-2.649-4.43-0.763-7.191
			c5.435-7.955,10.574-16.118,16.166-23.959c1.733-2.43,1.635-4.111,0.122-6.325c-2.396-3.506-4.503-7.22-7.057-10.601
			c-0.717-0.949-2.692-1.661-3.882-1.427c-10.069,1.981-20.076,4.27-30.133,6.313c-2.345,0.477-4.018,0.162-5.118-3.014
			c-2.443-7.054-5.819-13.785-8.937-20.928c10.127-6.804,20.031-13.646,30.144-20.165c4.267-2.75,8.396-0.447,10.074,4.407
			c6.512,18.833,15.58,36.147,28.708,51.449c12.419,14.476,27.092,25.778,43.834,34.465c13.365,6.935,27.509,12.049,42.532,13.9
			c9.632,1.187,19.406,2.227,29.072,1.923c17.747-0.559,34.833-4.626,51.307-11.557c19.119-8.043,35.416-19.868,49.572-34.855
			c0.8-0.847,1.947-1.515,2.41-2.509C304.965,278.31,309.176,276.768,314.438,277.958z"/>
		<linearGradient id="SVGID_4_" gradientUnits="userSpaceOnUse" x1="70.7114" y1="119.2539" x2="301.3667" y2="119.2539">
			<stop  offset="0" style="stop-color:#FFF33B"/>
			<stop  offset="0.0595" style="stop-color:#FFE029"/>
			<stop  offset="0.1303" style="stop-color:#FFD218"/>
			<stop  offset="0.2032" style="stop-color:#FEC90F"/>
			<stop  offset="0.2809" style="stop-color:#FDC70C"/>
			<stop  offset="0.6685" style="stop-color:#F3903F"/>
			<stop  offset="0.8876" style="stop-color:#ED683C"/>
			<stop  offset="1" style="stop-color:#E93E3A"/>
		</linearGradient>
		<path fill-rule="evenodd" clip-rule="evenodd" fill="url(#SVGID_4_)" d="M301.367,118.467c-0.724,0.102-1.053,0.148-1.382,0.194
			c-9.869,1.371-17.284-1.184-24.435-9.356c-14.47-16.536-33.674-26.149-55-31.355c-1.255-0.306-2.608-0.203-4.328-0.318
			c23.084,29.509,27.218,64.187,29.975,100.05c-2.766,0-4.875,0-6.985,0c-2.154,0-4.308,0-6.687,0
			c-0.52-6.396-0.88-12.602-1.551-18.775c-2.707-24.926-8.19-48.947-23.207-69.79c-6.766-9.39-17.438-8.802-24.736,1.074
			c-9.418,12.745-14.812,27.234-17.979,42.474c-2.424,11.66-3.479,23.604-5.163,35.42c-0.417,2.923-0.912,5.835-1.44,9.193
			c-3.742,0-7.779,0-12.845,0c2.315-35.201,6.65-69.579,29.041-98.808c-14.06-3.87-58.744,23.92-68.686,43.186
			c14.629,0,29.014,0,44.257,0c-0.945,4.854-1.77,9.088-2.731,14.026c-1.534,0-3.298,0-5.061,0c-14.162,0-28.324,0.077-42.484-0.066
			c-2.703-0.027-4.015,0.793-5.16,3.274c-4.955,10.738-8.752,21.77-9.924,33.615c-0.158,1.599-0.793,3.152-1.264,4.942
			c-4.283,0-8.566,0-12.851,0c-1.071-37.318,28.298-90.778,83.102-109.523C217.007,46.318,276.927,77.158,301.367,118.467z"/>
		<linearGradient id="SVGID_5_" gradientUnits="userSpaceOnUse" x1="241.0688" y1="128.8535" x2="387.8472" y2="128.8535">
			<stop  offset="0" style="stop-color:#FFF33B"/>
			<stop  offset="0.0595" style="stop-color:#FFE029"/>
			<stop  offset="0.1303" style="stop-color:#FFD218"/>
			<stop  offset="0.2032" style="stop-color:#FEC90F"/>
			<stop  offset="0.2809" style="stop-color:#FDC70C"/>
			<stop  offset="0.6685" style="stop-color:#F3903F"/>
			<stop  offset="0.8876" style="stop-color:#ED683C"/>
			<stop  offset="1" style="stop-color:#E93E3A"/>
		</linearGradient>
		<path fill-rule="evenodd" clip-rule="evenodd" fill="url(#SVGID_5_)" d="M244.465,135.682c-1.161-4.751-2.232-9.135-3.396-13.9
			c2.088,0,3.904,0,5.721,0c33.639,0,67.276-0.056,100.914,0.087c3.323,0.014,5.45-0.94,7.216-3.646
			c4.339-6.652,12.861-9.291,20.798-6.383c8.607,3.154,12.534,10.479,12.097,18.755c-0.419,7.917-7.193,14.893-14.871,16.095
			c-8.88,1.39-14.439-1.303-19.451-8.75c-0.889-1.32-3.418-2.159-5.194-2.166c-32.638-0.127-65.277-0.093-97.916-0.093
			C248.555,135.682,246.729,135.682,244.465,135.682z M369.572,120.687c-3.855-0.067-8.558,4.241-8.657,7.933
			c-0.112,4.126,4.67,9.198,8.607,9.127c3.372-0.061,8.371-5.308,8.461-8.882C378.075,125.228,373.474,120.755,369.572,120.687z"/>
		<linearGradient id="SVGID_6_" gradientUnits="userSpaceOnUse" x1="307.9146" y1="245.6499" x2="372.1665" y2="245.6499">
			<stop  offset="0" style="stop-color:#FFF33B"/>
			<stop  offset="0.0595" style="stop-color:#FFE029"/>
			<stop  offset="0.1303" style="stop-color:#FFD218"/>
			<stop  offset="0.2032" style="stop-color:#FEC90F"/>
			<stop  offset="0.2809" style="stop-color:#FDC70C"/>
			<stop  offset="0.6685" style="stop-color:#F3903F"/>
			<stop  offset="0.8876" style="stop-color:#ED683C"/>
			<stop  offset="1" style="stop-color:#E93E3A"/>
		</linearGradient>
		<path fill-rule="evenodd" clip-rule="evenodd" fill="url(#SVGID_6_)" d="M307.915,252.682c2.486-4.948,4.65-9.255,6.984-13.9
			c5.81,0,11.965,0.192,18.095-0.122c1.748-0.089,4.2-1.204,5.004-2.607c6.122-10.701,23.505-11.901,31.205-0.295
			c3.719,5.605,3.875,12.192,0.824,18.234c-2.879,5.702-7.616,9.273-14.36,9.716c-7.704,0.505-13.73-2.011-18.018-8.705
			c-0.807-1.259-3.075-2.174-4.697-2.219C324.809,252.562,316.658,252.682,307.915,252.682z M353.225,253.78
			c5.238,0.079,8.667-2.984,8.771-7.834c0.105-4.921-3.203-8.198-8.342-8.264c-3.985-0.051-8.455,4.002-8.639,7.834
			C344.84,249.18,349.353,253.722,353.225,253.78z"/>
		<linearGradient id="SVGID_7_" gradientUnits="userSpaceOnUse" x1="167.3579" y1="128.6079" x2="224.3423" y2="128.6079">
			<stop  offset="0" style="stop-color:#FFF33B"/>
			<stop  offset="0.0595" style="stop-color:#FFE029"/>
			<stop  offset="0.1303" style="stop-color:#FFD218"/>
			<stop  offset="0.2032" style="stop-color:#FEC90F"/>
			<stop  offset="0.2809" style="stop-color:#FDC70C"/>
			<stop  offset="0.6685" style="stop-color:#F3903F"/>
			<stop  offset="0.8876" style="stop-color:#ED683C"/>
			<stop  offset="1" style="stop-color:#E93E3A"/>
		</linearGradient>
		<path fill-rule="evenodd" clip-rule="evenodd" fill="url(#SVGID_7_)" d="M224.342,135.432c-19.056,0-37.442,0-56.984,0
			c1.241-4.358,2.262-8.345,3.587-12.228c0.237-0.693,1.733-1.354,2.651-1.358c15.605-0.083,31.212-0.059,47.011-0.059
			C221.859,126.36,223.046,130.697,224.342,135.432z"/>
		<linearGradient id="SVGID_8_" gradientUnits="userSpaceOnUse" x1="228.6899" y1="216.771" x2="246.2993" y2="216.771">
			<stop  offset="0" style="stop-color:#FFF33B"/>
			<stop  offset="0.0595" style="stop-color:#FFE029"/>
			<stop  offset="0.1303" style="stop-color:#FFD218"/>
			<stop  offset="0.2032" style="stop-color:#FEC90F"/>
			<stop  offset="0.2809" style="stop-color:#FDC70C"/>
			<stop  offset="0.6685" style="stop-color:#F3903F"/>
			<stop  offset="0.8876" style="stop-color:#ED683C"/>
			<stop  offset="1" style="stop-color:#E93E3A"/>
		</linearGradient>
		<path fill-rule="evenodd" clip-rule="evenodd" fill="url(#SVGID_8_)" d="M242.263,235.478c-5.415,0-9.698,0-13.573,0
			c1.378-12.469,2.737-24.78,4.134-37.414c3.832,0,8.077,0,13.476,0C244.955,210.526,243.619,222.909,242.263,235.478z"/>
		<linearGradient id="SVGID_9_" gradientUnits="userSpaceOnUse" x1="145.2632" y1="216.8901" x2="162.9038" y2="216.8901">
			<stop  offset="0" style="stop-color:#FFF33B"/>
			<stop  offset="0.0595" style="stop-color:#FFE029"/>
			<stop  offset="0.1303" style="stop-color:#FFD218"/>
			<stop  offset="0.2032" style="stop-color:#FEC90F"/>
			<stop  offset="0.2809" style="stop-color:#FDC70C"/>
			<stop  offset="0.6685" style="stop-color:#F3903F"/>
			<stop  offset="0.8876" style="stop-color:#ED683C"/>
			<stop  offset="1" style="stop-color:#E93E3A"/>
		</linearGradient>
		<path fill-rule="evenodd" clip-rule="evenodd" fill="url(#SVGID_9_)" d="M145.263,198.046c5.399,0,9.326,0,13.301,0
			c1.445,12.532,2.861,24.807,4.34,37.624c-3.824,0-7.294,0.205-10.713-0.12c-1.074-0.103-2.772-1.531-2.898-2.516
			C147.824,221.538,146.601,210.011,145.263,198.046z"/>
		<path fill-rule="evenodd" clip-rule="evenodd" fill="#FFFFFF" d="M9.899,187.363c-0.031-3.837,4.409-8.76,7.789-8.636
			c4.164,0.154,8.227,4.455,8.309,8.796c0.077,4.122-4.122,8.21-8.479,8.253C13.148,195.82,9.939,192.277,9.899,187.363z"/>
		<path fill-rule="evenodd" clip-rule="evenodd" fill="#FFFFFF" d="M369.572,120.687c3.902,0.068,8.503,4.542,8.411,8.177
			c-0.09,3.574-5.089,8.822-8.461,8.882c-3.938,0.071-8.72-5-8.607-9.127C361.014,124.928,365.716,120.619,369.572,120.687z"/>
		<path fill-rule="evenodd" clip-rule="evenodd" fill="#FFFFFF" d="M353.225,253.78c-3.872-0.058-8.385-4.6-8.209-8.264
			c0.184-3.832,4.653-7.885,8.639-7.834c5.139,0.066,8.447,3.343,8.342,8.264C361.892,250.796,358.463,253.859,353.225,253.78z"/>
	</g>
</g>
<g id="Calque_1">
	<text transform="matrix(1 0 0 1 340.0405 216.771)" fill="#726658" font-family="'MerriweatherSans-Regular'" font-size="72">BARLIER VICTOR</text>
	<text transform="matrix(1 0 0 1 345.0112 331.731)" fill="#726658" font-family="'MerriweatherSans-Regular'" font-size="72">Web Developer</text>
</g>
</svg>
